<svg width="206" height="198" viewBox="0 0 206 198" fill="none" xmlns="http://www.w3.org/2000/svg">
<path fill-rule="evenodd" clip-rule="evenodd" d="M148.833 140.056C154.527 140.056 159.134 135.448 159.134 129.755L159.134 70.9112C159.134 65.2175 154.527 60.6096 148.833 60.6096L89.9894 60.6096C84.2958 60.6096 79.6879 65.2175 79.6879 70.9112L79.6879 129.755C79.6879 135.448 84.2958 140.056 89.9894 140.056L148.833 140.056ZM167.962 129.755C167.962 140.321 159.399 148.884 148.833 148.884L89.9894 148.884C79.423 148.884 70.8605 140.321 70.8605 129.755L70.8605 70.9112C70.8605 60.3448 79.423 51.7822 89.9894 51.7822L148.833 51.7822C153.906 51.7822 158.772 53.7976 162.359 57.3849C165.947 60.9723 167.962 65.8379 167.962 70.9112L167.962 129.755Z" fill="#F7F7F7"/>
<path fill-rule="evenodd" clip-rule="evenodd" d="M73.0678 121.326L48.6336 135.494C48.2137 135.747 47.7349 135.886 47.2448 135.897C46.7547 135.907 46.2704 135.789 45.8401 135.554C45.4098 135.32 45.0485 134.976 44.7921 134.558C44.5357 134.141 44.3932 133.663 44.3788 133.173L44.3788 67.9913C44.3788 65.9787 46.6739 64.5221 48.6336 65.6609L73.059 79.8289L77.4904 72.1932L53.0649 58.0252C45.4822 53.6291 35.5514 58.8638 35.5514 67.9913L35.5514 133.173C35.5514 142.292 45.4822 147.526 53.0649 143.13L77.4815 128.962L73.0502 121.326L73.0678 121.326Z" fill="#F7F7F7"/>
</svg>
