<svg width="40" height="40" viewBox="0 0 40 40" fill="none" xmlns="http://www.w3.org/2000/svg">
<path d="M20 0C8.97231 0 0 8.97154 0 20C0 31.0285 8.97231 40 20 40C31.0277 40 40 31.0285 40 20C40 8.97154 31.0277 0 20 0ZM31.15 13.33L18.8423 27.1762C18.5392 27.5169 18.1169 27.6923 17.6915 27.6923C17.3538 27.6923 17.0146 27.5815 16.7308 27.3554L9.03846 21.2015C8.37538 20.6715 8.26769 19.7031 8.79846 19.0392C9.32846 18.3754 10.2977 18.2677 10.9608 18.7985L17.5123 24.0392L28.85 11.2846C29.4131 10.6492 30.3869 10.5923 31.0215 11.1569C31.6569 11.7223 31.7146 12.6946 31.15 13.33Z" fill="#A9E46C"/>
</svg>
