<svg width="43" height="43" viewBox="0 0 43 43" fill="none" xmlns="http://www.w3.org/2000/svg">
<path d="M41.7026 17.2513C41.251 15.1682 40.4725 13.1984 39.4086 11.3572C36.7441 13.6859 33.2241 16.3026 30.5066 16.6402C30.9931 18.6754 30.3633 20.597 29.0287 21.9317C27.2758 23.6859 24.9445 24.6517 22.4636 24.6517C19.9841 24.6517 17.6529 23.6859 15.8986 21.9317C15.3388 21.37 14.8806 20.9587 15.1582 20.1047C15.3204 19.6032 15.7516 19.2337 16.2723 19.1499C17.9015 18.8875 19.2299 17.7885 19.6557 16.3503C19.9195 15.4574 20.4099 14.6359 21.0734 13.9737C22.4551 12.5912 24.5053 12.1242 26.3578 12.543C26.6698 9.82781 29.3795 6.21534 31.6548 3.59934C23.7109 -0.977348 13.2234 -0.063472 6.18517 6.97865C1.17788 11.9859 -0.936272 18.9053 0.385134 25.9635C1.90857 34.0987 8.36645 40.7421 16.4577 42.4962C18.0072 42.8314 19.5609 42.999 21.1023 42.999C24.7106 42.999 27.8543 42.3146 29.0521 38.6731C29.7925 36.4229 29.2197 33.9914 27.5561 32.3279C26.456 31.2277 26.456 29.4497 27.5561 28.3496C28.6194 27.2863 30.4712 27.2863 31.5344 28.3496C33.1967 30.0119 35.6227 30.586 37.8796 29.8456C40.0638 29.1272 41.6313 27.2849 41.9692 25.0389C42.3565 22.4797 42.2673 19.8599 41.7026 17.2513ZM15.4783 6.42506C17.8054 6.42506 19.6984 8.31806 19.6984 10.6451C19.6984 12.9722 17.8054 14.8652 15.4783 14.8652C13.1513 14.8652 11.2583 12.9722 11.2583 10.6451C11.2583 8.31815 13.1512 6.42506 15.4783 6.42506ZM5.63148 19.0853C5.63148 16.7583 7.52448 14.8653 9.85154 14.8653C12.1786 14.8653 14.0716 16.7583 14.0716 19.0853C14.0716 21.4124 12.1786 23.3054 9.85154 23.3054C7.52448 23.3054 5.63148 21.4124 5.63148 19.0853ZM12.6649 34.559C10.3378 34.559 8.44482 32.666 8.44482 30.3389C8.44482 28.0118 10.3378 26.1188 12.6649 26.1188C14.9919 26.1188 16.8849 28.0118 16.8849 30.3389C16.885 32.6659 14.9919 34.559 12.6649 34.559Z" fill="#A9E46C"/>
</svg>
