<svg width="48" height="48" viewBox="0 0 48 48" fill="none" xmlns="http://www.w3.org/2000/svg">
<path d="M18.375 22.5938C17.5991 22.5938 16.9688 23.2241 16.9688 24C16.9688 24.7759 17.5991 25.4062 18.375 25.4062C19.1509 25.4062 19.7812 24.7759 19.7812 24C19.7812 23.2241 19.1509 22.5938 18.375 22.5938Z" fill="#A9E46C"/>
<path d="M35.514 8.1194L28.6308 1.23618C28.5034 1.10877 28.3589 1.0063 28.2188 0.897461V8.53143H35.8527C35.7439 8.39137 35.6414 8.2468 35.514 8.1194Z" fill="#A9E46C"/>
<path d="M25.2746 25.2786C25.3515 24.8625 25.4064 24.4381 25.4064 24C25.4064 23.5619 25.3515 23.1376 25.2746 22.7214C25.1661 22.1364 25.4394 21.5459 25.9544 21.2479L27.6023 20.2962L26.1961 17.86L24.5275 18.8241C24.0153 19.1207 23.3657 19.0603 22.9125 18.6772C22.2533 18.1155 21.5145 17.687 20.7166 17.4041C20.1562 17.205 19.7813 16.6735 19.7813 16.0789V14.1562H16.9688V16.0789C16.9688 16.6735 16.5939 17.205 16.0336 17.4041C15.2357 17.6871 14.4968 18.1155 13.8377 18.6772C13.3845 19.0603 12.7349 19.1207 12.2226 18.8241L10.5541 17.86L9.14783 20.2962L10.7958 21.2479C11.3107 21.5459 11.584 22.1364 11.4755 22.7214C11.3987 23.1376 11.3437 23.5619 11.3437 24C11.3437 24.4381 11.3987 24.8624 11.4755 25.2786C11.584 25.8636 11.3107 26.4541 10.7958 26.7521L9.14783 27.7038L10.5541 30.14L12.2226 29.1759C12.7349 28.8807 13.3845 28.9384 13.8377 29.3228C14.4968 29.8845 15.2357 30.313 16.0336 30.5959C16.5939 30.795 16.9688 31.3265 16.9688 31.9211V33.8438H19.7813V31.9211C19.7813 31.3265 20.1562 30.795 20.7166 30.5959C21.5145 30.3129 22.2533 29.8845 22.9125 29.3228C23.3657 28.9383 24.0153 28.8806 24.5275 29.1759L26.1961 30.14L27.6023 27.7038L25.9544 26.7521C25.4394 26.4541 25.1661 25.8636 25.2746 25.2786ZM18.375 28.2188C16.0487 28.2188 14.1562 26.3263 14.1562 24C14.1562 21.6737 16.0487 19.7812 18.375 19.7812C20.7013 19.7812 22.5937 21.6737 22.5937 24C22.5937 26.3263 20.7013 28.2188 18.375 28.2188Z" fill="#A9E46C"/>
<path d="M26.8125 11.3438C26.0352 11.3438 25.4062 10.7148 25.4062 9.9375V0H4.21875C1.89244 0 0 1.98619 0 4.3125V38.0625C0 40.3888 1.89244 42.2812 4.21875 42.2812H20.7618L28.845 47.7638C29.281 48.0545 29.8374 48.0757 30.2884 47.8338C30.7456 47.5894 31.0312 47.1128 31.0312 46.5938V42.2812H32.4375C34.7638 42.2812 36.75 40.3888 36.75 38.0625V11.3438H26.8125ZM28.2188 24.0001C28.2188 24.2665 28.2051 24.5302 28.1816 24.7898L30.2265 25.9708C30.8994 26.3595 31.1302 27.2191 30.7415 27.892L27.929 32.7645C27.7422 33.0872 27.4346 33.3234 27.0748 33.4195C26.7136 33.5143 26.3305 33.4648 26.0077 33.2795L23.9341 32.0806C23.507 32.3758 23.0593 32.6354 22.5938 32.8579V35.25C22.5938 36.0273 21.9648 36.6562 21.1875 36.6562H15.5625C14.7852 36.6562 14.1562 36.0273 14.1562 35.25V32.8577C13.6907 32.6352 13.243 32.3756 12.8159 32.0804L10.7423 33.2793C10.4196 33.4647 10.0323 33.5141 9.67519 33.4193C9.31538 33.3232 9.00778 33.087 8.82103 32.7643L6.00853 27.8918C5.61984 27.2189 5.85056 26.3592 6.5235 25.9706L8.56838 24.7896C8.54503 24.5301 8.53125 24.2664 8.53125 24C8.53125 23.7336 8.54494 23.4699 8.56838 23.2103L6.5235 22.0293C5.85056 21.6406 5.61984 20.781 6.00853 20.1081L8.82103 15.2356C9.00778 14.9129 9.31538 14.6767 9.67519 14.5806C10.0323 14.4845 10.4195 14.5339 10.7423 14.7206L12.8159 15.9195C13.243 15.6243 13.6907 15.3647 14.1562 15.1422V12.75C14.1562 11.9727 14.7852 11.3438 15.5625 11.3438H21.1875C21.9648 11.3438 22.5938 11.9727 22.5938 12.75V15.1423C23.0593 15.3648 23.507 15.6244 23.9341 15.9196L26.0077 14.7207C26.3304 14.534 26.7136 14.4845 27.0748 14.5807C27.4346 14.6767 27.7422 14.913 27.929 15.2357L30.7415 20.1082C31.1302 20.7811 30.8994 21.6408 30.2265 22.0294L28.1816 23.2104C28.205 23.47 28.2188 23.7337 28.2188 24.0001Z" fill="#A9E46C"/>
<path d="M43.7812 2.8125C41.4549 2.8125 39.5625 4.79869 39.5625 7.125V11.3438H48V7.125C48 4.79869 46.1076 2.8125 43.7812 2.8125Z" fill="#A9E46C"/>
<path d="M48 14.1562H39.5625V33.8438H48V14.1562Z" fill="#A9E46C"/>
<path d="M39.9549 36.6562L42.4478 44.1324C42.6387 44.7065 43.1756 45.0938 43.7812 45.0938C44.3868 45.0938 44.9238 44.7065 45.1147 44.1324L47.6075 36.6562H39.9549Z" fill="#A9E46C"/>
</svg>
