<svg width="48" height="48" viewBox="0 0 48 48" fill="none" xmlns="http://www.w3.org/2000/svg">
<g clip-path="url(#clip0)">
<path d="M46.5001 -0.09375H1.3125C0.535768 -0.09375 -0.09375 0.535768 -0.09375 1.3125V16.3748C-0.09375 17.1515 0.535768 17.781 1.3125 17.781C2.08924 17.781 2.71876 17.1515 2.71876 16.3748V10.2499H18.735V22.5H1.3125C0.535768 22.5 -0.09375 23.1296 -0.09375 23.9063V28.425C-0.09375 29.2017 0.535768 29.8312 1.3125 29.8312C2.08924 29.8312 2.71876 29.2017 2.71876 28.425V25.3125H9.32045V45.0938H4.70143C3.92506 45.0938 3.29517 45.7234 3.29517 46.5001C3.29517 47.2765 3.92506 47.9063 4.70143 47.9063H32.9437C33.7204 47.9063 34.3499 47.2765 34.3499 46.5001V38.9689C34.3499 38.1922 33.7204 37.5627 32.9437 37.5627H29.0787V10.2499H45.0938V16.3748C45.0938 17.1515 45.7234 17.781 46.5001 17.781C47.2765 17.781 47.9063 17.1515 47.9063 16.3748V1.3125C47.9063 0.535768 47.2768 -0.09375 46.5001 -0.09375V-0.09375ZM12.133 25.3125H18.7343V28.425C18.7343 28.4286 18.735 28.4323 18.735 28.436V37.5627H14.8689C14.0922 37.5627 13.4627 38.1922 13.4627 38.9689V45.0938H12.133V25.3125Z" fill="#A9E46C"/>
</g>
<defs>
<clipPath id="clip0">
<rect width="48" height="48" fill="white"/>
</clipPath>
</defs>
</svg>
