<svg width="40" height="40" viewBox="0 0 40 40" fill="none" xmlns="http://www.w3.org/2000/svg">
<path d="M22.5 16.25C24.1663 16.25 25.7344 16.9006 26.9169 18.0831L30.8444 22.0106L35.4731 17.3C37.1844 15.5875 38.125 13.3194 38.125 10.9062C38.125 8.4975 37.1844 6.23125 35.4769 4.52312C33.7694 2.815 31.5019 1.875 29.0938 1.875C26.6819 1.875 24.4125 2.81562 22.7044 4.52312L14.0556 13.1719L18.5463 17.6625C19.6613 16.7475 21.0431 16.25 22.5 16.25ZM23.5825 5.4125C24.9956 3.99937 27.2131 3.125 29.375 3.125V4.375C27.5325 4.375 25.6538 5.10937 24.4725 6.29062L19.8231 11.0612L18.9275 10.1888L23.5825 5.4125Z" fill="#02B3A5"/>
<path d="M31.7875 24.7212L24.7213 31.7874L29.5919 36.6581C30.5381 37.6043 31.7931 38.1249 33.125 38.1249C34.4569 38.1249 35.7119 37.6043 36.6581 36.6581C38.6063 34.7099 38.6063 31.5399 36.6581 29.5912L31.7875 24.7212ZM36.1244 35.3756L35.125 34.6249C35.8669 33.6387 35.765 32.2349 34.89 31.3593L32.0613 28.5699L32.9388 27.6799L35.7706 30.4724C37.0869 31.7881 37.2381 33.8949 36.1244 35.3756Z" fill="#A9E46C"/>
<path d="M17.6637 18.5476L13.1725 14.0564L4.52312 22.7045C2.81562 24.4126 1.875 26.6808 1.875 29.0939C1.875 31.5026 2.81562 33.7689 4.52312 35.477C6.23063 37.1851 8.49813 38.1251 10.9062 38.1251C13.3181 38.1251 15.5875 37.1845 17.2956 35.477L22.0106 30.8445L18.0831 26.917C15.7969 24.6314 15.6575 20.9989 17.6637 18.5476ZM6.28562 24.4776C5.10938 25.6545 4.375 27.5333 4.375 29.3751H3.125C3.125 27.2133 3.99938 24.9958 5.4075 23.5883L10.1888 18.9276L11.0612 19.8226L6.28562 24.4776Z" fill="#02B3A5"/>
<path d="M26.0332 18.9669C25.0869 18.0206 23.8319 17.5 22.5 17.5C21.1682 17.5 19.9132 18.0206 18.9669 18.9669C17.0188 20.915 17.0188 24.085 18.9669 26.0337L23.8375 30.9044L30.9038 23.8375L26.0332 18.9669Z" fill="#A9E46C"/>
</svg>
