<svg width="40" height="40" viewBox="0 0 40 40" fill="none" xmlns="http://www.w3.org/2000/svg">
<circle cx="20" cy="20" r="20" fill="#A9E46C"/>
<path d="M28.2143 18.2143H22.1429C21.9456 18.2143 21.7857 18.0544 21.7857 17.8571V11.7857C21.7857 10.7996 20.9862 10 20 10C19.0138 10 18.2143 10.7996 18.2143 11.7857V17.8571C18.2143 18.0544 18.0544 18.2143 17.8571 18.2143H11.7857C10.7996 18.2143 10 19.0138 10 20C10 20.9862 10.7996 21.7857 11.7857 21.7857H17.8571C18.0544 21.7857 18.2143 21.9456 18.2143 22.1429V28.2143C18.2143 29.2004 19.0138 30 20 30C20.9862 30 21.7857 29.2004 21.7857 28.2143V22.1429C21.7857 21.9456 21.9456 21.7857 22.1429 21.7857H28.2143C29.2004 21.7857 30 20.9862 30 20C30 19.0138 29.2004 18.2143 28.2143 18.2143Z" fill="white"/>
</svg>
