<svg width="44" height="44" viewBox="0 0 44 44" fill="none" xmlns="http://www.w3.org/2000/svg">
<rect width="44" height="44" rx="22" fill="#02B3A5"/>
<path fill-rule="evenodd" clip-rule="evenodd" d="M15.3338 16.375C14.5275 16.375 13.875 17.0275 13.875 17.8337V26.1663C13.875 26.9725 14.5275 27.625 15.3338 27.625H23.6663C24.4725 27.625 25.125 26.9725 25.125 26.1663V17.8337C25.125 17.0275 24.4725 16.375 23.6663 16.375H15.3338ZM12.625 17.8337C12.625 16.3375 13.8375 15.125 15.3338 15.125H23.6663C25.1625 15.125 26.375 16.3375 26.375 17.8337V26.1663C26.375 27.6625 25.1625 28.875 23.6663 28.875H15.3338C14.6153 28.875 13.9264 28.5896 13.4184 28.0816C12.9104 27.5736 12.625 26.8847 12.625 26.1663V17.8337Z" fill="white"/>
<path fill-rule="evenodd" clip-rule="evenodd" d="M26.0625 19.0625L29.5225 17.0562C29.582 17.0204 29.6498 17.0008 29.7192 16.9993C29.7886 16.9978 29.8572 17.0145 29.9181 17.0477C29.979 17.081 30.0302 17.1296 30.0665 17.1888C30.1028 17.2479 30.123 17.3156 30.125 17.385V26.615C30.125 26.9 29.8 27.1062 29.5225 26.945L26.0638 24.9387L25.4363 26.02L28.895 28.0262C29.9688 28.6487 31.375 27.9075 31.375 26.615V17.385C31.375 16.0937 29.9688 15.3525 28.895 15.975L25.4375 17.9812L26.065 19.0625H26.0625Z" fill="white"/>
</svg>
